<svg width="563" height="114" viewBox="0 0 563 114" fill="none" xmlns="http://www.w3.org/2000/svg">
<path d="M0 30C0 13.4315 13.4315 0 30 0H533C549.569 0 563 13.4315 563 30V84C563 100.569 549.569 114 533 114H30C13.4315 114 0 100.569 0 84V30Z" fill="white"/>
<path d="M0 30C0 13.4315 13.4315 0 30 0H533C549.569 0 563 13.4315 563 30V84C563 100.569 549.569 114 533 114H30C13.4315 114 0 100.569 0 84V30Z" fill="white"/>
<path d="M0 30C0 13.4315 13.4315 0 30 0H533C549.569 0 563 13.4315 563 30V84C563 100.569 549.569 114 533 114H30C13.4315 114 0 100.569 0 84V30Z" fill="white"/>
<path d="M0 30C0 13.4315 13.4315 0 30 0H533C549.569 0 563 13.4315 563 30V84C563 100.569 549.569 114 533 114H30C13.4315 114 0 100.569 0 84V30Z" fill="white"/>
</svg>
